PathFileType	4	(X/Y/Z)	18_2_rein_44_p0_0-444_filt_butterworth.trc
DataRate	CameraRate	NumFrames	NumMarkers	Units	OrigDataRate	OrigDataStartFrame	OrigNumFrames
59.0	59.0	6	27	m	59.0	55	444
Frame#	Time	RHip			RKnee			RAnkle			RBigToe			RSmallToe			RHeel			LHip			LKnee			LAnkle			LBigToe			LSmallToe			LHeel			Neck			Head			Nose			RShoulder			RElbow			RWrist			RThumb			RIndex			RPinky			LShoulder			LElbow			LWrist			LThumb			LIndex			LPinky			
		X1	Y1	Z1	X2	Y2	Z2	X3	Y3	Z3	X4	Y4	Z4	X5	Y5	Z5	X6	Y6	Z6	X7	Y7	Z7	X8	Y8	Z8	X9	Y9	Z9	X10	Y10	Z10	X11	Y11	Z11	X12	Y12	Z12	X13	Y13	Z13	X14	Y14	Z14	X15	Y15	Z15	X16	Y16	Z16	X17	Y17	Z17	X18	Y18	Z18	X19	Y19	Z19	X20	Y20	Z20	X21	Y21	Z21	X22	Y22	Z22	X23	Y23	Z23	X24	Y24	Z24	X25	Y25	Z25	X26	Y26	Z26	X27	Y27	Z27	
55	0.9322033898305084	0.2588337250176687	0.41763279971117173	1.2123491159554396	0.23524675473673787	0.4976997806990816	1.6366832548842665	0.23166589531331433	0.6008767542366117	2.010317984454441	0.21223055161997745	0.397487308984688	2.040992494130133	0.26825025864561197	0.42497415353924417	2.0437764212313514	0.21858499268691126	0.6776286938207283	2.0712949815631005	0.05170812430052089	0.39402252304719304	1.2164648874662258	0.04113767211432507	0.4964375259389253	1.6458223119333113	0.03797983377489722	0.5700614329556568	2.0261285078543483	0.08207065970099688	0.43134223800191895	2.0618883508385832	0.008901567732508355	0.42686270222994527	2.0441007702451572	0.04808213585068249	0.5950138214762928	2.0520072500269615	0.1526224744694883	0.3738944310589744	0.7001730550918612	0.18585993131914785	0.28749678357943537	0.4660900756351739	0.17652255260606195	0.2359610891278318	0.5999742142051243	0.3032492102130414	0.3452966566977698	0.7579521817100265	0.3796248378090093	0.22090000130048912	0.9192195090308467	0.27837838749428556	0.191149486718948	0.7051690503977486	0.20741116477734609	0.2329506434495242	0.649712190064229	0.2215471889797758	0.20528788517912605	0.6166828174407993	0.22188966374369917	0.14025821573396513	0.6538467257181426	0.031994812600972415	0.3808240980840847	0.7646020545383592	-0.038746025146088464	0.24570396835710615	0.964179595829612	0.05314998607661051	0.18549198190838645	0.7874948454017288	0.08836781567010207	0.2387306515828823	0.7332943046713644	0.09987047732627317	0.19871304990925415	0.6924380575432857	0.08123905224694383	0.12029504216445962	0.7391536500735928
56	0.9491525423728814	0.2594352758460079	0.41716988901598495	1.211043424439308	0.23625417645907573	0.5017437878457296	1.6379975561580342	0.23160160480254427	0.6010017339903158	2.011042534792009	0.2122286699223565	0.39737357436802545	2.041929113211004	0.26824556456965326	0.42496500664198494	2.0437667269252153	0.21859514504726216	0.6776567108463578	2.0712936502546277	0.050979233891581925	0.39570446287764516	1.2155694204169905	0.04117125819034182	0.4964639499550877	1.6456984557452143	0.03798810409474589	0.5701185290263429	2.026204341737809	0.08208942552078968	0.4313695349878153	2.061996467540644	0.00922284636517165	0.4289789798152742	2.0462314216125033	0.048077150446982374	0.5950187906024058	2.0519832520280774	0.15182163852585362	0.37246860346675703	0.7002867823486243	0.18574944385653056	0.2874917192488908	0.46600992904598515	0.17459392008814506	0.23568220018120628	0.599969527013523	0.3032621398985218	0.34576768036076366	0.7584000791102897	0.37859904608360545	0.2183796806685272	0.920095224613657	0.2772738149796457	0.19463133656250148	0.7054804795419689	0.20637935627231638	0.23537049916329972	0.6501793212383375	0.2195571445794614	0.21136883908835766	0.6164519635884333	0.2183702176811669	0.13877846026709567	0.655190211444685	0.03337775808057517	0.38118631437468353	0.7648156976755537	-0.03853895469998021	0.2428473642455476	0.9637337573484992	0.05278061741156804	0.18535975378316852	0.785605486611656	0.09147905170684424	0.24344439775426643	0.730576787476716	0.10224657008093875	0.20583370519473324	0.6924487045257274	0.0803044793628499	0.12119294416909422	0.7373462485416968
57	0.9661016949152542	0.2595843527848646	0.417182617728533	1.2109902228140423	0.2366925943850156	0.5035446240835894	1.6385724635858097	0.23144975817573116	0.6012657186174918	2.0120144190139095	0.21224417110428326	0.3969497344218317	2.041359830997937	0.2682315830334853	0.42502478567617086	2.043771822556555	0.21859768531018448	0.6776892062196793	2.071292874425324	0.0490868500768025	0.39942921672725973	1.2158387764906573	0.04122184152837531	0.4964917825868414	1.6455351682776396	0.037849660012335744	0.5701802818702842	2.0265519913695345	0.08208536725269552	0.4313838185618998	2.062164647538405	0.010120426057153098	0.43354161628233945	2.0498950110241005	0.04806964375298691	0.5950356985736861	2.0519776522248874	0.15099540913753826	0.3691563068479321	0.7003491506347028	0.18570341980477684	0.28748609946964787	0.46600269190700694	0.17227591644090962	0.23521745806766683	0.6001532327418191	0.3031830185601995	0.34588626071575784	0.7593996786005233	0.3781252529407234	0.2173220927606051	0.9215686326281131	0.2764161756667245	0.1990800782738777	0.7067989450306688	0.20741368934859394	0.23653696495279042	0.6501031395115494	0.2193073424465398	0.212204155415312	0.6166420905079713	0.2154893004032331	0.1358252801964548	0.6571923643208885	0.03448357534402914	0.3816617937569815	0.7650053429522149	-0.0386098069660451	0.24267548578398884	0.9636576361870081	0.05254691438190182	0.18528069050199966	0.7845033644712426	0.09552489088122999	0.24397221813716008	0.7272176261903393	0.10462640308166488	0.21079349339605033	0.6922746374678845	0.08020838379195869	0.12216205736086708	0.7346364622840483
58	0.9830508474576272	0.2587523683827431	0.41745080242638655	1.2121820780712715	0.2367527219418457	0.5039014393109527	1.6387097926416248	0.23136700549134948	0.6014562198039634	2.012318316323247	0.21226183270479065	0.396294950627249	2.0397281594578063	0.2681775799925095	0.4250690583417269	2.0437339772802985	0.2185886044391	0.6777317050233754	2.07128651462901	0.04673231913756694	0.40498743284267774	1.2168114762123305	0.04124267992511473	0.49652766840737955	1.6454903603634172	0.03752213429139347	0.5704730943460588	2.0277662055180774	0.08210290426498924	0.43134979961361014	2.062256843164313	0.011661167539852083	0.4392292778540554	2.053741539647564	0.04805810612773411	0.5950622220367952	2.0519978853511214	0.15003176274968344	0.3648466112967718	0.7003126813708538	0.18571621110218467	0.28738743238259623	0.4663807459673326	0.1710192883342733	0.23478368812995862	0.6006544912121097	0.3027514668723172	0.3447768033740344	0.7605857936478883	0.3780365919448606	0.2173316044419301	0.9230509125856002	0.27692351941511656	0.20156775988443215	0.7102555341572249	0.21024538684935834	0.2361238288044901	0.650545163500641	0.2214585806785475	0.2066536150462026	0.6174341101956703	0.21506932652431293	0.1324957268058011	0.658966797127227	0.03496171205708679	0.3819295740660792	0.7651412197718646	-0.03843783446659431	0.24438849701727045	0.9638513212320752	0.05249816015557042	0.18525165188924875	0.7840912661419286	0.09890187659796436	0.24249590691100725	0.724570735425327	0.10637242964578303	0.2136099790117107	0.6920440358450679	0.08053702681595014	0.12259012279162956	0.7317410252506928
59	1.0	0.2565494358763924	0.417810499637189	1.2139122027318519	0.23670389457007548	0.5038774059031211	1.6387886428035254	0.23132713297884167	0.601571112775614	2.0127309637684307	0.2122291007874702	0.3958125419947977	2.038682275533879	0.2680751937987879	0.4249612871367861	2.043637544653218	0.21856632110653904	0.6777918700360156	2.0712660532458593	0.045633686482716776	0.41160867901057246	1.21793458360765	0.04115426111783515	0.4966436794215695	1.645896923131287	0.03710654567044727	0.5709671105167706	2.0295687440803247	0.08214796428955236	0.43119207924006175	2.0622282809370533	0.013651937759084114	0.4437306287394839	2.0563401569026007	0.04805248137568656	0.5950881816560677	2.05204763826019	0.1492969055218284	0.36163972417226664	0.7002443986439323	0.1857847513892666	0.28708414274077687	0.4673890695085603	0.17128313327703146	0.2346181603653493	0.6016898715702824	0.30179653205987556	0.3417753355670168	0.7612871539930125	0.3780892757468256	0.21775836458981884	0.9244792886833471	0.2791361602775573	0.20064567794871918	0.7161464791084793	0.2133943395641564	0.23438475182389515	0.6528283737083398	0.22524350272399812	0.19795093234438696	0.6190233552553119	0.21739964185253935	0.13218124899763928	0.6601761552885985	0.03491138504523377	0.38200909528360716	0.7651909900577243	-0.03744974902410217	0.24801570170120166	0.9643322641372103	0.05255708331168825	0.18517638701478384	0.7840367459704368	0.10072120728540893	0.24106293019055616	0.7229505967939212	0.10775926178758471	0.21560828826598089	0.6921172889182254	0.081144831931034	0.12249577019556111	0.7292744253114904
60	1.0169491525423728	0.25370998594751554	0.4184145394666102	1.2154183140929207	0.23655810429722998	0.5034375248405975	1.6387950235146116	0.23119724151125906	0.6017273028628972	2.0142925130174016	0.21212978574030533	0.39584259281468226	2.039304389977207	0.26803675062977467	0.42499159725682684	2.0436538722368045	0.21853571166452912	0.6778397660254107	2.0712627751623125	0.046477835738874686	0.418014968886409	1.2192877882776512	0.040908264214835885	0.4969171769624354	1.6469993728399543	0.03680533493435926	0.5714234688414247	2.031064533637487	0.08226251750448767	0.43094187488642377	2.062088845177894	0.015589150002314787	0.4460036154890207	2.0574498896588276	0.04805543521877606	0.5951010769213284	2.0521073762817883	0.14899432089108477	0.3604414792097639	0.7002304407081236	0.18589649630286895	0.2866221894231675	0.46875037503855943	0.17245791865303933	0.2348655200035533	0.6030310431979425	0.30059149918975936	0.3377627860338241	0.7613206874660496	0.37822384854930025	0.21836769188414623	0.9258418775219507	0.28187757843350614	0.19767983499837022	0.7229536927514745	0.21558720211214	0.2325300544186335	0.6564601509082121	0.22897573862800077	0.19089440220336476	0.6214755891136089	0.22162097266611147	0.13664708697759126	0.6609667275489419	0.03436188692506591	0.38201794688055496	0.7651580298136196	-0.03552650759585737	0.25267637832660134	0.9650327491469897	0.05263267683946393	0.18511534353872514	0.7843216218819521	0.10077841754600655	0.24053552211274085	0.7218991876944937	0.1087869151040432	0.21867408786036768	0.6923630026151019	0.0817034777978271	0.12293687019042135	0.7280113467559346
